<svg width="12" height="7" viewBox="0 0 12 7" fill="none" xmlns="http://www.w3.org/2000/svg">
<path d="M10.2807 0.299429L5.98771 4.59243L1.69471 0.299429C1.50611 0.117271 1.25351 0.0164764 0.991311 0.0187548C0.729114 0.0210332 0.478301 0.126202 0.292893 0.31161C0.107485 0.497018 0.00231622 0.747831 3.78026e-05 1.01003C-0.00224062 1.27222 0.0985538 1.52483 0.280712 1.71343L5.28071 6.71343C5.46824 6.9009 5.72255 7.00622 5.98771 7.00622C6.25288 7.00622 6.50718 6.9009 6.69471 6.71343L11.6947 1.71343C11.7902 1.62118 11.8664 1.51084 11.9188 1.38883C11.9712 1.26683 11.9988 1.13561 12 1.00283C12.0011 0.870051 11.9758 0.738371 11.9255 0.615475C11.8753 0.492578 11.801 0.380927 11.7071 0.287034C11.6132 0.193141 11.5016 0.118888 11.3787 0.0686072C11.2558 0.0183263 11.1241 -0.00697543 10.9913 -0.00582162C10.8585 -0.0046678 10.7273 0.0229185 10.6053 0.0753275C10.4833 0.127736 10.373 0.203919 10.2807 0.299429Z" fill="black"/>
</svg>
